<svg width="782" height="229" viewBox="0 0 782 229" fill="none" xmlns="http://www.w3.org/2000/svg">
<path d="M275.364 126.238V52.5505H314.878V180.877H276.941V157.568H275.457C272.241 165.087 266.892 171.13 259.41 175.698C251.99 180.265 242.931 182.548 232.233 182.548C222.71 182.548 214.331 180.599 207.096 176.7C199.861 172.801 194.203 167.259 190.122 160.074C186.102 152.889 184.062 144.284 184 134.259V52.5505H223.514V127.909C223.576 135.484 225.833 141.471 230.285 145.872C234.737 150.272 240.704 152.472 248.187 152.472C252.948 152.472 257.4 151.497 261.543 149.548C265.687 147.542 269.026 144.591 271.561 140.692C274.158 136.793 275.426 131.975 275.364 126.238Z" fill="#FFFFFF"/>
<path d="M338.648 229V52.5505H377.605V74.1054H379.368C381.099 70.6522 383.603 67.1432 386.881 63.5786C390.22 59.9583 394.549 56.9506 399.867 54.5556C405.246 52.105 411.925 50.8796 419.902 50.8796C430.29 50.8796 439.875 53.3303 448.656 58.2317C457.437 63.0773 464.455 70.4016 469.711 80.2043C474.967 89.9514 477.595 102.177 477.595 116.881C477.595 131.195 475.029 143.282 469.897 153.14C464.826 162.943 457.9 170.378 449.12 175.447C440.401 180.46 430.63 182.966 419.809 182.966C412.141 182.966 405.617 181.824 400.238 179.541C394.92 177.257 390.56 174.389 387.159 170.935C383.758 167.426 381.161 163.89 379.368 160.325H378.162V229H338.648ZM377.327 116.714C377.327 124.345 378.502 131 380.852 136.681C383.202 142.363 386.603 146.791 391.055 149.965C395.507 153.084 400.918 154.644 407.287 154.644C413.718 154.644 419.16 153.057 423.612 149.882C428.064 146.651 431.434 142.196 433.722 136.514C436.072 130.778 437.247 124.177 437.247 116.714C437.247 109.306 436.103 102.79 433.815 97.1642C431.527 91.5387 428.157 87.1386 423.705 83.9639C419.252 80.7891 413.78 79.2017 407.287 79.2017C400.856 79.2017 395.414 80.7334 390.962 83.7968C386.572 86.8601 383.202 91.2045 380.852 96.83C378.502 102.455 377.327 109.083 377.327 116.714Z" fill="#FFFFFF"/>
<path d="M496.102 180.877V52.5505H534.41V74.9409H535.894C538.491 66.9762 542.851 60.9608 548.973 56.8949C555.094 52.7733 562.144 50.7125 570.121 50.7125C572.1 50.7125 574.233 50.8239 576.521 51.0467C578.809 51.2695 580.819 51.5758 582.55 51.9657V83.5461C580.695 83.0449 578.129 82.5993 574.851 82.2094C571.574 81.8195 568.575 81.6246 565.854 81.6246C560.041 81.6246 554.847 82.7664 550.271 85.05C545.757 87.2779 542.17 90.3969 539.511 94.4071C536.914 98.4174 535.616 103.04 535.616 108.276V180.877H496.102Z" fill="#FFFFFF"/>
<path d="M595.885 180.877C595.885 114.058 595.885 76.5946 595.885 9.7749H721.662V39.6009H636.048V80.3714H713.313V110.197H636.048V180.877H595.885Z" fill="#6EC6A7"/>
<path d="M740.099 180.877V52.5505H779.612V180.877H740.099ZM759.948 36.0084C754.074 36.0084 749.034 34.2539 744.829 30.745C740.686 27.1803 738.614 22.9195 738.614 17.9624C738.614 13.061 740.686 8.8559 744.829 5.34696C749.034 1.78232 754.074 0 759.948 0C765.823 0 770.831 1.78232 774.974 5.34696C779.179 8.8559 781.282 13.061 781.282 17.9624C781.282 22.9195 779.179 27.1803 774.974 30.745C770.831 34.2539 765.823 36.0084 759.948 36.0084Z" fill="#6EC6A7"/>
<path fill-rule="evenodd" clip-rule="evenodd" d="M82.645 87H118.664C163.534 89.9098 186.969 138.793 168.845 178.951C155.152 209.289 129.238 225.576 96.8159 229L8.67726e-06 229L4.72284 202.23L8.26496 177.787H96.8159C110.894 177.787 122.203 167.572 122.203 153.344C122.203 145.449 115.711 134.204 111.578 128.32C100.952 113.189 98.5907 109.115 82.645 87Z" fill="#6EC6A7"/>
<path fill-rule="evenodd" clip-rule="evenodd" d="M92.355 142H56.3365C11.4659 139.09 -11.9688 90.2068 6.15507 50.0492C19.8475 19.7105 45.762 3.42445 78.1841 0L175 0L170.277 26.7705L166.735 51.2131L78.1841 51.2131C64.1057 51.2131 52.7967 61.428 52.7967 75.6557C52.7967 83.5513 59.2891 94.796 63.4216 100.68C74.0479 115.811 76.4094 119.885 92.355 142Z" fill="#FFFFFF"/>
</svg>
