<svg width="232" height="229" viewBox="0 0 232 229" fill="none" xmlns="http://www.w3.org/2000/svg">
<path fill-rule="evenodd" clip-rule="evenodd" d="M82.645 87H118.664C163.534 89.91 186.969 138.793 168.845 178.951C155.152 209.289 129.238 225.576 96.816 229H0L4.72278 202.23L8.26489 177.787H96.816C110.894 177.787 122.203 167.572 122.203 153.344C122.203 145.449 115.711 134.204 111.578 128.32C100.952 113.189 98.591 109.115 82.645 87Z" fill="#6EC6A7"/>
<path fill-rule="evenodd" clip-rule="evenodd" d="M92.355 142H56.336C11.4659 139.09 -11.9688 90.2073 6.15507 50.0492C19.8475 19.7105 45.762 3.42449 78.184 0L175 0L170.277 26.7705L166.735 51.2131L78.184 51.2131C64.1061 51.2131 52.7968 61.428 52.7968 75.6557C52.7968 83.5513 59.2894 94.7959 63.4223 100.68C74.0479 115.811 76.409 119.885 92.355 142Z" fill="#FAFAFA"/>
</svg>
