<svg width="175" height="229" viewBox="57 41 175 229" fill="none" xmlns="http://www.w3.org/2000/svg">
<path fill-rule="evenodd" clip-rule="evenodd" d="M139.645 128H175.664C220.534 130.91 243.969 179.793 225.845 219.951C212.152 250.289 186.238 266.576 153.816 270H57L61.7228 243.23L65.265 218.787H153.816C167.894 218.787 179.203 208.572 179.203 194.344C179.203 186.449 172.711 175.204 168.578 169.32C157.952 154.189 155.591 150.115 139.645 128Z" fill="#6EC6A7"/>
<path fill-rule="evenodd" clip-rule="evenodd" d="M149.355 183H113.336C68.4659 180.09 45.0312 131.207 63.1551 91.0492C76.8475 60.7105 102.762 44.4245 135.184 41L232 41L227.277 67.7705L223.735 92.2131L135.184 92.2131C121.106 92.2131 109.797 102.428 109.797 116.656C109.797 124.551 116.289 135.796 120.422 141.68C131.048 156.811 133.409 160.885 149.355 183Z" fill="#FAFAFA"/>
</svg>
